<svg width="220" height="48" viewBox="0 0 220 48" fill="none" xmlns="http://www.w3.org/2000/svg">
  <rect width="48" height="48" rx="14" fill="#326FFF"/>
  <path d="M14 31L20.5 16L28.5 30.5L34 17L40 31" stroke="white" stroke-width="3.4" stroke-linecap="round" stroke-linejoin="round"/>
  <path d="M61.5 32V15.8H65.26L72.88 26.44V15.8H76.92V32H73.2L65.54 21.28V32H61.5Z" fill="#0F172A"/>
  <path d="M80.055 32V15.8H84.215V28.28H92.375V32H80.055Z" fill="#0F172A"/>
  <path d="M94.8022 32V15.8H99.0082L104.33 24.39L109.652 15.8H113.858V32H109.95V22.12L105.028 29.93H103.632L98.7102 22.12V32H94.8022Z" fill="#0F172A"/>
  <path d="M117.705 32V15.8H121.865V32H117.705Z" fill="#0F172A"/>
  <path d="M131.404 32.32C126.382 32.32 123.302 29.2 123.302 23.9C123.302 18.6 126.462 15.48 131.564 15.48C135.032 15.48 137.632 16.72 139.348 18.92L136.524 21.42C135.308 19.96 133.792 19.28 131.804 19.28C128.896 19.28 127.542 21.26 127.542 23.9C127.542 26.52 128.916 28.52 131.804 28.52C133.812 28.52 135.388 27.74 136.664 26.16L139.488 28.6C137.672 31.02 135.032 32.32 131.404 32.32Z" fill="#0F172A"/>
  <path d="M148.128 32.32C143.026 32.32 139.866 29.08 139.866 23.9C139.866 18.72 143.026 15.48 148.128 15.48C153.21 15.48 156.39 18.72 156.39 23.9C156.39 29.08 153.21 32.32 148.128 32.32ZM148.128 28.48C150.75 28.48 152.15 26.42 152.15 23.9C152.15 21.38 150.75 19.32 148.128 19.32C145.486 19.32 144.106 21.38 144.106 23.9C144.106 26.42 145.486 28.48 148.128 28.48Z" fill="#0F172A"/>
  <path d="M161.69 32V19.48H156.968V15.8H170.572V19.48H165.85V32H161.69Z" fill="#0F172A"/>
  <path d="M173.15 32V15.8H184.758V19.36H177.31V22.16H184.118V25.64H177.31V28.44H184.758V32H173.15Z" fill="#0F172A"/>
  <path d="M193.927 32.32C188.905 32.32 185.825 29.2 185.825 23.9C185.825 18.6 188.985 15.48 194.087 15.48C197.555 15.48 200.155 16.72 201.871 18.92L199.047 21.42C197.831 19.96 196.315 19.28 194.327 19.28C191.419 19.28 190.065 21.26 190.065 23.9C190.065 26.52 191.439 28.52 194.327 28.52C196.335 28.52 197.911 27.74 199.187 26.16L202.011 28.6C200.195 31.02 197.555 32.32 193.927 32.32Z" fill="#0F172A"/>
</svg>
